<svg xmlns="http://www.w3.org/2000/svg" viewBox="0 0 1440 320"><path fill="#0099ff" fill-opacity="1" d="M0,288L12.6,261.3C25.3,235,51,181,76,149.3C101.1,117,126,107,152,101.3C176.8,96,202,96,227,133.3C252.6,171,278,245,303,245.3C328.4,245,354,171,379,165.3C404.2,160,429,224,455,250.7C480,277,505,267,531,224C555.8,181,581,107,606,106.7C631.6,107,657,181,682,186.7C707.4,192,733,128,758,96C783.2,64,808,64,834,53.3C858.9,43,884,21,909,64C934.7,107,960,213,985,240C1010.5,267,1036,213,1061,165.3C1086.3,117,1112,75,1137,90.7C1162.1,107,1187,181,1213,186.7C1237.9,192,1263,128,1288,128C1313.7,128,1339,192,1364,213.3C1389.5,235,1415,213,1427,202.7L1440,192L1440,0L1427.4,0C1414.7,0,1389,0,1364,0C1338.9,0,1314,0,1288,0C1263.2,0,1238,0,1213,0C1187.4,0,1162,0,1137,0C1111.6,0,1086,0,1061,0C1035.8,0,1011,0,985,0C960,0,935,0,909,0C884.2,0,859,0,834,0C808.4,0,783,0,758,0C732.6,0,707,0,682,0C656.8,0,632,0,606,0C581.1,0,556,0,531,0C505.3,0,480,0,455,0C429.5,0,404,0,379,0C353.7,0,328,0,303,0C277.9,0,253,0,227,0C202.1,0,177,0,152,0C126.3,0,101,0,76,0C50.5,0,25,0,13,0L0,0Z"></path></svg>